<svg version="1.1" viewBox="0.0 0.0 512.0 512.0" fill="none" stroke="none" stroke-linecap="square" stroke-miterlimit="10" xmlns:xlink="http://www.w3.org/1999/xlink" xmlns="http://www.w3.org/2000/svg"><clipPath id="p.0"><path d="m0 0l512.0 0l0 512.0l-512.0 0l0 -512.0z" clip-rule="nonzero"/></clipPath><g clip-path="url(#p.0)"><path fill="#000000" fill-opacity="0.0" d="m0 0l512.0 0l0 512.0l-512.0 0z" fill-rule="evenodd"/><path fill="#cfe2f3" d="m0 256.0l0 0c0 -141.38489 114.615105 -256.0 256.0 -256.0l0 0c67.89542 0 133.01001 26.971352 181.01935 74.98067c48.009308 48.009308 74.98065 113.12392 74.98065 181.01933l0 0c0 141.38489 -114.61511 256.0 -256.0 256.0l0 0c-141.38489 0 -256.0 -114.61511 -256.0 -256.0z" fill-rule="evenodd"/><path fill="#b7b7b7" d="m115.338585 187.74278l0 0c0 -79.38115 62.976265 -143.73228 140.6614 -143.73228l0 0c37.305725 0 73.083496 15.143181 99.46265 42.098213c26.37912 26.955032 41.19876 63.513893 41.19876 101.63407l0 0c0 79.38115 -62.976257 143.73228 -140.6614 143.73228l0 0c-77.68515 0 -140.6614 -64.351135 -140.6614 -143.73228z" fill-rule="evenodd"/><path fill="#b7b7b7" d="m65.27559 388.23096l0 0c0 -63.143097 85.39023 -114.33069 190.72441 -114.33069l0 0c105.3342 0 190.7244 51.18759 190.7244 114.33069l0 0c0 63.143127 -85.3902 114.33072 -190.7244 114.33072l0 0c-105.33418 0 -190.72441 -51.18759 -190.72441 -114.33072z" fill-rule="evenodd"/></g></svg>